<svg width="19" height="19" viewBox="0 0 19 19" fill="none" xmlns="http://www.w3.org/2000/svg">
<rect x="0.5" y="0.5" width="18" height="18" rx="3.5" fill="white" stroke="#0387D9"/>
<path fill-rule="evenodd" clip-rule="evenodd" d="M4 9.49998C4 9.87956 4.3079 10.1875 4.68748 10.1875H14.3125C14.6922 10.1875 15 9.87956 15 9.49998C15 9.1204 14.6922 8.8125 14.3125 8.8125H4.68763C4.3079 8.8125 4 9.1204 4 9.49998Z" fill="#0387D9"/>
<path fill-rule="evenodd" clip-rule="evenodd" d="M9.50002 15C9.8796 15 10.1875 14.6921 10.1875 14.3125V4.68748C10.1875 4.30776 9.8796 4 9.50002 4C9.12044 4 8.81254 4.30776 8.81254 4.68748V14.3124C8.81254 14.6921 9.12044 15 9.50002 15Z" fill="#0387D9"/>
</svg>
