<svg width="19" height="19" viewBox="0 0 19 19" fill="none" xmlns="http://www.w3.org/2000/svg">
<g clip-path="url(#clip0_366_3588)">
<path d="M10.9604 17.8409C10.7516 17.9405 10.5056 17.9141 10.3256 17.7689L4.4888 13.0997H1.7C1.0388 13.0997 0.5 12.5609 0.5 11.8997V7.09969C0.5 6.43849 1.0388 5.89969 1.7 5.89969H4.4888L10.3244 1.23049C10.4336 1.14409 10.5668 1.09969 10.7 1.09969C10.7888 1.09969 10.8776 1.11889 10.9604 1.15849C11.168 1.25929 11.3 1.46929 11.3 1.69969V17.2997C11.3 17.5301 11.168 17.7401 10.9604 17.8409ZM4.1 7.09969H1.7V11.8997H4.1V7.09969ZM10.1 2.94889L5.3 6.78889V12.2105L10.1 16.0505V2.94889Z" fill="#0387D9"/>
<path d="M14.3383 13.7425C14.1019 13.9765 13.7227 13.9729 13.4899 13.7377C13.2571 13.5013 13.2595 13.1221 13.4947 12.8893C14.4007 11.9929 14.8999 10.7893 14.8999 9.49925C14.8999 8.20925 14.4007 7.00565 13.4947 6.10925C13.2583 5.87645 13.2559 5.49725 13.4899 5.26085C13.6075 5.14205 13.7623 5.08325 13.9159 5.08325C14.0683 5.08325 14.2207 5.14085 14.3383 5.25725C15.4747 6.37925 16.0999 7.88525 16.0999 9.49925C16.0999 11.1133 15.4747 12.6193 14.3383 13.7425Z" fill="#0387D9"/>
<path d="M16.0304 15.4337C15.7952 15.6665 15.4148 15.6653 15.182 15.4301C14.9492 15.1949 14.9504 14.8145 15.1856 14.5817C16.5488 13.2293 17.3 11.4245 17.3 9.49972C17.3 7.57492 16.5488 5.77012 15.1856 4.41772C14.9504 4.18492 14.9492 3.80452 15.182 3.56932C15.2996 3.45052 15.4532 3.39172 15.608 3.39172C15.7604 3.39172 15.9128 3.44932 16.0304 3.56572C17.6228 5.14492 18.5 7.25212 18.5 9.49972C18.5 11.7473 17.6228 13.8545 16.0304 15.4337Z" fill="#0387D9"/>
</g>
<defs>
<clipPath id="clip0_366_3588">
<rect width="18" height="18" fill="white" transform="matrix(1 0 0 -1 0.5 18.5)"/>
</clipPath>
</defs>
</svg>
