<svg width="11" height="11" viewBox="0 0 11 11" fill="none" xmlns="http://www.w3.org/2000/svg">
<g clip-path="url(#clip0_366_3654)">
<path d="M6.93814 1.34601L10.7782 7.9972C10.919 8.24112 11 8.52389 11 8.82577C11 9.74251 10.2568 10.4857 9.34003 10.4857H5.5L4.17203 5.50018L5.5 0.514648C6.11488 0.514648 6.65128 0.849225 6.93814 1.34601Z" fill="#3B4145"/>
<path d="M4.06186 1.34601L0.221783 7.9972C0.0809746 8.24112 0 8.52389 0 8.82577C0 9.74251 0.743187 10.4857 1.65997 10.4857H5.5V0.514648C4.88512 0.514648 4.34872 0.849225 4.06186 1.34601Z" fill="#525A61"/>
<path d="M10.2032 8.32871L6.36319 1.67758C6.19011 1.37768 5.87229 1.18844 5.52856 1.17871L8.81286 9.82134H9.34006C9.88918 9.82134 10.336 9.37451 10.336 8.82537C10.336 8.65096 10.29 8.47921 10.2032 8.32871Z" fill="#FFB751"/>
<path d="M9.55739 8.32938C9.63242 8.47988 9.67203 8.65162 9.67203 8.82603C9.67203 9.37515 9.28671 9.822 8.81283 9.822H1.65997C1.11085 9.822 0.664001 9.37515 0.664001 8.82603C0.664001 8.65162 0.710043 8.47988 0.796796 8.32938L4.63683 1.67824C4.81478 1.37016 5.14545 1.17871 5.5 1.17871C5.50952 1.17871 5.51904 1.17893 5.52856 1.17938C5.82358 1.19089 6.09605 1.37968 6.24455 1.67824L9.55739 8.32938Z" fill="#FFD764"/>
<path d="M5.5 7.6084V8.71504C5.80566 8.71504 6.05333 8.46737 6.05333 8.16171C6.05333 7.85607 5.80566 7.6084 5.5 7.6084Z" fill="#3B4145"/>
<path d="M5.49999 7.6084C5.56107 7.6084 5.61065 7.85607 5.61065 8.16173C5.61065 8.46739 5.56107 8.71506 5.49999 8.71506C5.19433 8.71506 4.94666 8.46739 4.94666 8.16173C4.94666 7.85607 5.19433 7.6084 5.49999 7.6084Z" fill="#525A61"/>
<path d="M5.5 2.84961V6.94419C5.80566 6.94419 6.05333 6.6963 6.05333 6.39086V3.40294C6.05333 3.09728 5.80566 2.84961 5.5 2.84961Z" fill="#3B4145"/>
<path d="M5.49999 2.84961C5.56107 2.84961 5.61065 3.09728 5.61065 3.40294V6.39086C5.61065 6.69628 5.56107 6.94419 5.49999 6.94419C5.19433 6.94419 4.94666 6.6963 4.94666 6.39086V3.40294C4.94666 3.09728 5.19433 2.84961 5.49999 2.84961Z" fill="#525A61"/>
</g>
<defs>
<clipPath id="clip0_366_3654">
<rect width="11" height="11" fill="white"/>
</clipPath>
</defs>
</svg>
