<svg width="19" height="19" viewBox="0 0 19 19" fill="none" xmlns="http://www.w3.org/2000/svg">
<rect x="0.5" y="0.5" width="18" height="18" rx="3.5" fill="white" stroke="#E56750"/>
<mask id="path-2-inside-1_355_3774" fill="white">
<path fill-rule="evenodd" clip-rule="evenodd" d="M5.61046 5.61029C5.34205 5.8787 5.34205 6.31414 5.61046 6.58254L12.4164 13.3885C12.6849 13.657 13.1202 13.6569 13.3886 13.3885C13.657 13.1201 13.6571 12.6847 13.3886 12.4162L6.58281 5.6104C6.3143 5.34189 5.87886 5.34189 5.61046 5.61029Z"/>
</mask>
<path fill-rule="evenodd" clip-rule="evenodd" d="M5.61046 5.61029C5.34205 5.8787 5.34205 6.31414 5.61046 6.58254L12.4164 13.3885C12.6849 13.657 13.1202 13.6569 13.3886 13.3885C13.657 13.1201 13.6571 12.6847 13.3886 12.4162L6.58281 5.6104C6.3143 5.34189 5.87886 5.34189 5.61046 5.61029Z" fill="#E56750"/>
<path d="M5.61046 5.61029L7.52071 7.52054C8.30731 6.73394 8.30731 5.45888 7.52071 4.67229L5.61046 6.58254L3.70021 8.49279C2.3768 7.16939 2.37679 5.02345 3.70021 3.70004L5.61046 5.61029ZM5.61046 6.58254L7.52071 4.67229L14.3266 11.4782L12.4164 13.3885L10.5061 15.2987L3.70021 8.49279L5.61046 6.58254ZM12.4164 13.3885L14.3266 11.4782C13.5399 10.6915 12.2647 10.6919 11.4784 11.4782L13.3886 13.3885L15.2989 15.2987C13.9757 16.6219 11.8299 16.6225 10.5061 15.2987L12.4164 13.3885ZM13.3886 13.3885L11.4784 11.4782C10.692 12.2646 10.6916 13.5397 11.4784 14.3265L13.3886 12.4162L15.2989 10.506C16.6227 11.8297 16.622 13.9756 15.2989 15.2987L13.3886 13.3885ZM13.3886 12.4162L11.4784 14.3265L4.67256 7.52065L6.58281 5.6104L8.49306 3.70014L15.2989 10.506L13.3886 12.4162ZM6.58281 5.6104L4.67256 7.52065C5.45878 8.30688 6.73384 8.30741 7.52071 7.52054L5.61046 5.61029L3.70021 3.70004C5.02388 2.37636 7.16982 2.37691 8.49306 3.70014L6.58281 5.6104Z" fill="#E56750" mask="url(#path-2-inside-1_355_3774)"/>
<mask id="path-4-inside-2_355_3774" fill="white">
<path fill-rule="evenodd" clip-rule="evenodd" d="M5.61046 13.3878C5.87886 13.6562 6.3143 13.6562 6.58271 13.3878L13.3886 6.58183C13.6571 6.31332 13.657 5.87798 13.3886 5.60958C13.1202 5.34118 12.6849 5.34107 12.4164 5.60958L5.61056 12.4154C5.34206 12.6839 5.34206 13.1194 5.61046 13.3878Z"/>
</mask>
<path fill-rule="evenodd" clip-rule="evenodd" d="M5.61046 13.3878C5.87886 13.6562 6.3143 13.6562 6.58271 13.3878L13.3886 6.58183C13.6571 6.31332 13.657 5.87798 13.3886 5.60958C13.1202 5.34118 12.6849 5.34107 12.4164 5.60958L5.61056 12.4154C5.34206 12.6839 5.34206 13.1194 5.61046 13.3878Z" fill="#E56750"/>
<path d="M5.61046 13.3878L7.52071 11.4775C6.73411 10.6909 5.45905 10.6909 4.67245 11.4775L6.58271 13.3878L8.49296 15.298C7.16956 16.6214 5.02362 16.6214 3.70021 15.298L5.61046 13.3878ZM6.58271 13.3878L4.67245 11.4775L11.4784 4.67157L13.3886 6.58183L15.2989 8.49208L8.49296 15.298L6.58271 13.3878ZM13.3886 6.58183L11.4784 4.67157C10.6916 5.45833 10.692 6.73349 11.4784 7.51983L13.3886 5.60958L15.2989 3.69933C16.622 5.02247 16.6227 7.16831 15.2989 8.49208L13.3886 6.58183ZM13.3886 5.60958L11.4784 7.51983C12.2647 8.30617 13.5399 8.30659 14.3266 7.51983L12.4164 5.60958L10.5061 3.69933C11.8299 2.37556 13.9757 2.37618 15.2989 3.69933L13.3886 5.60958ZM12.4164 5.60958L14.3266 7.51983L7.52082 14.3257L5.61056 12.4154L3.70031 10.5052L10.5061 3.69933L12.4164 5.60958ZM5.61056 12.4154L7.52082 14.3257C8.30704 13.5394 8.30758 12.2644 7.52071 11.4775L5.61046 13.3878L3.70021 15.298C2.37653 13.9743 2.37707 11.8284 3.70031 10.5052L5.61056 12.4154Z" fill="#E56750" mask="url(#path-4-inside-2_355_3774)"/>
</svg>
