<svg width="21" height="21" viewBox="0 0 21 21" fill="none" xmlns="http://www.w3.org/2000/svg">
<path d="M17.0569 20.067H3.01005C1.35021 20.067 0 18.7168 0 17.0569V3.01005C0 1.35021 1.35021 0 3.01005 0H17.0569C18.7168 0 20.067 1.35021 20.067 3.01005V17.0569C20.067 18.7168 18.7168 20.067 17.0569 20.067ZM3.01005 2.0067C2.45644 2.0067 2.0067 2.45693 2.0067 3.01005V17.0569C2.0067 17.6101 2.45644 18.0603 3.01005 18.0603H17.0569C17.6106 18.0603 18.0603 17.6101 18.0603 17.0569V3.01005C18.0603 2.45693 17.6106 2.0067 17.0569 2.0067H3.01005Z" fill="#0387D9"/>
<path d="M8.59503 13.8459C8.48048 13.9448 8.3242 14 8.16185 14C7.99951 14 7.84323 13.9448 7.72868 13.8459L4.26926 10.8752C3.91025 10.567 3.91025 10.0672 4.26926 9.75953L4.70243 9.38752C5.06156 9.07929 5.64304 9.07929 6.00206 9.38752L8.16185 11.242L13.9979 6.23118C14.3571 5.92294 14.9391 5.92294 15.2976 6.23118L15.7307 6.60318C16.0898 6.91142 16.0898 7.41115 15.7307 7.7189L8.59503 13.8459Z" fill="#0387D9"/>
</svg>
