<svg width="20" height="20" viewBox="0 0 20 20" fill="none" xmlns="http://www.w3.org/2000/svg">
<path d="M13.5715 14.2862C13.3887 14.2862 13.2059 14.2165 13.0665 14.0769L5.92367 6.93408C5.64458 6.65499 5.64458 6.20303 5.92367 5.9241C6.2026 5.64517 6.65472 5.64502 6.93365 5.9241L14.0764 13.0669C14.3555 13.346 14.3555 13.7979 14.0764 14.0769C13.937 14.2165 13.7543 14.2862 13.5715 14.2862Z" fill="#555555"/>
<path d="M6.42858 14.2853C6.24578 14.2853 6.06313 14.2156 5.92367 14.076C5.64458 13.797 5.64458 13.3449 5.92367 13.066L13.0665 5.92318C13.3455 5.6441 13.7975 5.6441 14.0764 5.92318C14.3554 6.20211 14.3555 6.65423 14.0764 6.93316L6.93365 14.076C6.79418 14.2156 6.61138 14.2853 6.42858 14.2853Z" fill="#555555"/>
</svg>
