<svg width="16" height="16" viewBox="0 0 16 16" fill="none" xmlns="http://www.w3.org/2000/svg">
<g clip-path="url(#clip0_258_5253)">
<path d="M13.5833 0.5H2.41675C1.35983 0.5 0.5 1.35986 0.5 2.41678V13.5833C0.5 14.6401 1.35983 15.5 2.41675 15.5H13.5833C14.6402 15.5 15.5 14.6401 15.5 13.5832V2.41678C15.5 1.35986 14.6402 0.5 13.5833 0.5ZM14.6165 13.5833C14.6165 14.153 14.153 14.6165 13.5833 14.6165H2.41675C1.84701 14.6165 1.38351 14.153 1.38351 13.5833V11.9717L4.29137 9.49757C4.39748 9.40728 4.55229 9.40643 4.65939 9.49537L6.4809 11.0079C6.65653 11.1537 6.91435 11.1418 7.07574 10.9802L11.4037 6.64561C11.482 6.56724 11.5732 6.55962 11.6208 6.56205C11.6682 6.56448 11.7583 6.58142 11.8281 6.6674L14.6165 10.1007L14.6165 13.5833ZM14.6165 8.69917L12.5139 6.11032C12.3054 5.85356 11.9964 5.69659 11.666 5.67963C11.3359 5.66293 11.0122 5.78721 10.7785 6.02129L6.73531 10.0707L5.22389 8.81568C4.78563 8.45176 4.15271 8.45554 3.71882 8.82471L1.38351 10.8117V2.41678C1.38351 1.84704 1.84701 1.38354 2.41675 1.38354H13.5833C14.153 1.38354 14.6165 1.84704 14.6165 2.41678V8.69917Z" fill="#0387D9"/>
<path d="M5.22191 2.3457C4.04725 2.3457 3.09164 3.30137 3.09164 4.47597C3.09164 5.6506 4.04728 6.60623 5.22191 6.60623C6.39654 6.60623 7.35217 5.6506 7.35217 4.47597C7.35217 3.30134 6.39657 2.3457 5.22191 2.3457ZM5.22191 5.72272C4.53443 5.72272 3.97515 5.16342 3.97515 4.47597C3.97515 3.78849 4.53443 3.22921 5.22191 3.22921C5.90939 3.22921 6.46867 3.78852 6.46867 4.47597C6.46867 5.16342 5.90939 5.72272 5.22191 5.72272Z" fill="#0387D9"/>
</g>
<defs>
<clipPath id="clip0_258_5253">
<rect width="15" height="15" fill="white" transform="translate(0.5 0.5)"/>
</clipPath>
</defs>
</svg>
