<svg width="6" height="10" viewBox="0 0 6 10" fill="none" xmlns="http://www.w3.org/2000/svg">
<path d="M4.77555 9.21005C4.90304 9.2108 5.02785 9.17356 5.13409 9.10308C5.24032 9.03261 5.32316 8.9321 5.37205 8.81436C5.42093 8.69662 5.43365 8.56699 5.40857 8.44199C5.3835 8.317 5.32177 8.2023 5.23125 8.11253L1.82957 4.71727L5.23125 1.322C5.3364 1.19922 5.39134 1.04128 5.3851 0.87975C5.37886 0.718217 5.3119 0.564988 5.19759 0.450682C5.08329 0.336376 4.93006 0.269413 4.76853 0.263174C4.60699 0.256935 4.44906 0.311879 4.32627 0.417027L0.475313 4.26799C0.355772 4.38824 0.288675 4.55091 0.288675 4.72048C0.288675 4.89004 0.355772 5.05271 0.475313 5.17296L4.32627 9.02392C4.44582 9.1425 4.60718 9.20934 4.77555 9.21005Z" fill="#CACACA"/>
</svg>
