<svg width="10" height="10" viewBox="0 0 10 10" fill="none" xmlns="http://www.w3.org/2000/svg">
<path d="M0.908651 9.21005C0.781169 9.2108 0.656354 9.17356 0.550119 9.10308C0.443884 9.03261 0.361042 8.9321 0.312156 8.81436C0.263271 8.69662 0.250555 8.56699 0.275631 8.44199C0.300707 8.317 0.362438 8.2023 0.452954 8.11253L3.85464 4.71727L0.452954 1.322C0.347806 1.19922 0.292862 1.04128 0.299102 0.87975C0.305341 0.718217 0.372304 0.564988 0.48661 0.450682C0.600916 0.336376 0.754145 0.269413 0.915677 0.263174C1.07721 0.256935 1.23515 0.311879 1.35793 0.417027L5.20889 4.26799C5.32843 4.38824 5.39553 4.55091 5.39553 4.72048C5.39553 4.89004 5.32843 5.05271 5.20889 5.17296L1.35793 9.02392C1.23838 9.1425 1.07703 9.20934 0.908651 9.21005Z" fill="#CACACA"/>
<path d="M4.86019 9.21005C4.73271 9.2108 4.60789 9.17356 4.50166 9.10308C4.39542 9.03261 4.31258 8.9321 4.26369 8.81436C4.21481 8.69662 4.20209 8.56699 4.22717 8.44199C4.25224 8.317 4.31398 8.2023 4.40449 8.11253L7.80617 4.71727L4.40449 1.322C4.29934 1.19922 4.2444 1.04128 4.25064 0.87975C4.25688 0.718217 4.32384 0.564988 4.43815 0.450682C4.55245 0.336376 4.70568 0.269413 4.86722 0.263174C5.02875 0.256935 5.18669 0.311879 5.30947 0.417027L9.16043 4.26799C9.27997 4.38824 9.34707 4.55091 9.34707 4.72048C9.34707 4.89004 9.27997 5.05271 9.16043 5.17296L5.30947 9.02392C5.18992 9.1425 5.02857 9.20934 4.86019 9.21005Z" fill="#CACACA"/>
</svg>
