<svg width="14" height="14" viewBox="0 0 14 14" fill="none" xmlns="http://www.w3.org/2000/svg">
<g clip-path="url(#clip0_346_3561)">
<path d="M3.57437 5.65127L1.3995 7.83249C0.0811872 9.15466 0.0811872 11.2943 1.3995 12.6164C2.71558 13.9364 4.85346 13.9364 6.16953 12.6164L8.34533 10.4343C8.43442 10.345 8.43442 10.2004 8.34533 10.1111L7.43403 9.1971C7.34459 9.10738 7.1993 9.10738 7.10986 9.1971L5.04621 11.2668C4.41136 11.9035 3.38009 11.9035 2.74524 11.2668C2.10929 10.629 2.10929 9.59686 2.74524 8.95909L4.80982 6.88849C4.8989 6.79916 4.8989 6.65458 4.80982 6.56525L3.89852 5.65129C3.8091 5.56155 3.66382 5.56155 3.57437 5.65127Z" fill="#0387D9"/>
<path d="M2.34996 5.13073C2.31636 5.13073 2.28224 5.12665 2.24818 5.11811L0.315889 4.63361C0.0923521 4.57755 -0.0434113 4.35092 0.0126233 4.12741C0.0686852 3.90388 0.295286 3.76811 0.518822 3.82415L2.45111 4.30865C2.67465 4.36471 2.81041 4.59134 2.75438 4.81485C2.70685 5.00432 2.53678 5.13073 2.34996 5.13073Z" fill="#E56750"/>
<path d="M3.52507 3.95165C3.41809 3.95165 3.31111 3.91077 3.22961 3.82901L1.73208 2.32711C1.56936 2.1639 1.56975 1.89971 1.73292 1.73702C1.89613 1.57431 2.16033 1.57469 2.32301 1.73787L3.82054 3.23978C3.98326 3.40298 3.98287 3.66718 3.81969 3.82986C3.73827 3.91107 3.63167 3.95165 3.52507 3.95165Z" fill="#E56750"/>
<path d="M4.70029 2.77263C4.5132 2.77263 4.34302 2.64592 4.29574 2.4562L3.81266 0.518274C3.75692 0.294683 3.89299 0.0682188 4.11661 0.0124852C4.34028 -0.0432484 4.56666 0.0928434 4.6224 0.316435L5.10548 2.25433C5.16121 2.47792 5.02514 2.70439 4.80153 2.76012C4.76763 2.76858 4.73367 2.77263 4.70029 2.77263Z" fill="#E56750"/>
<path d="M13.5713 10.1819C13.5377 10.1819 13.5035 10.1778 13.4693 10.1693L11.5337 9.68392C11.3097 9.62777 11.1737 9.40073 11.2299 9.17681C11.286 8.95289 11.513 8.8168 11.737 8.87303L13.6727 9.35838C13.8966 9.41452 14.0326 9.64156 13.9764 9.86548C13.9288 10.0553 13.7585 10.1819 13.5713 10.1819Z" fill="#C1126B"/>
<path d="M11.9579 12.3815C11.8507 12.3815 11.7435 12.3406 11.6619 12.2587L10.1617 10.7541C9.99874 10.5907 9.99912 10.326 10.1626 10.163C10.3261 10 10.5907 10.0004 10.7537 10.1639L12.2539 11.6684C12.4168 11.8319 12.4165 12.0965 12.253 12.2595C12.1714 12.3409 12.0647 12.3815 11.9579 12.3815Z" fill="#C1126B"/>
<path d="M9.76382 14.0002C9.5764 14.0002 9.40594 13.8732 9.35855 13.6832L8.87462 11.7418C8.81881 11.5178 8.95512 11.291 9.17912 11.2352C9.40315 11.1793 9.62994 11.3157 9.68578 11.5397L10.1697 13.481C10.2255 13.705 10.0892 13.9318 9.86522 13.9877C9.83129 13.9961 9.79728 14.0002 9.76382 14.0002Z" fill="#C1126B"/>
<path d="M10.3219 8.45117L12.5805 6.18601C13.8988 4.86384 13.8988 2.72423 12.5805 1.40206C11.2644 0.0821263 9.12654 0.0821263 7.81047 1.40206L5.55095 3.66818C5.46186 3.75751 5.46186 3.90208 5.55095 3.99141L6.46225 4.90537C6.55169 4.99509 6.69697 4.99509 6.78642 4.90537L8.93376 2.75176C9.56861 2.11505 10.5999 2.11505 11.2347 2.75176C11.8707 3.38956 11.8707 4.42166 11.2347 5.05944L9.08646 7.21398C8.99737 7.30331 8.99737 7.44788 9.08646 7.53722L9.99776 8.45117C10.0872 8.54086 10.2325 8.54086 10.3219 8.45117Z" fill="#1766A0"/>
</g>
<defs>
<clipPath id="clip0_346_3561">
<rect width="14" height="14" fill="white"/>
</clipPath>
</defs>
</svg>
