<svg width="14" height="10" viewBox="0 0 14 10" fill="none" xmlns="http://www.w3.org/2000/svg">
<path d="M13.4593 3.44864C13.4005 3.32866 13.2786 3.2525 13.145 3.2525H11.8937C11.7004 3.2525 11.5437 3.40916 11.5437 3.6025V4.34394H11.0457V3.60082C11.0457 3.40818 10.89 3.25166 10.6974 3.25082L9.92614 3.24718L9.44524 2.15672C9.38938 2.02988 9.26366 1.94798 9.12506 1.94798H7.24556V1.05156H8.2334C8.42674 1.05156 8.5834 0.894902 8.5834 0.701562C8.5834 0.508222 8.42674 0.351562 8.2334 0.351562H4.0803C3.88696 0.351562 3.7303 0.508222 3.7303 0.701562C3.7303 0.894902 3.88696 1.05156 4.0803 1.05156H5.28766V1.94798H3.64112C3.51484 1.94798 3.39836 2.01602 3.33634 2.12592L2.98424 2.7499H2.74442C2.11008 2.7499 1.59404 3.26594 1.59404 3.90028V4.66342H0.78596C0.75614 4.66342 0.72772 4.66832 0.7 4.67532V2.79708C0.7 2.60374 0.54334 2.44708 0.35 2.44708C0.15666 2.44708 0 2.60374 0 2.79708V7.10978C0 7.30312 0.15666 7.45978 0.35 7.45978C0.54334 7.45978 0.7 7.30312 0.7 7.10978V5.35138C0.72758 5.35838 0.75614 5.36328 0.78596 5.36328H1.5939V7.05994C1.5939 7.70254 2.11666 8.22516 2.75926 8.22516H3.8822L5.20394 9.54676C5.2696 9.61242 5.3585 9.64924 5.45146 9.64924H10.6959C10.8892 9.64924 11.0459 9.49258 11.0459 9.29924V8.2911L11.5438 8.29012V8.95106C11.5438 9.14412 11.7001 9.30078 11.8933 9.30106L13.1712 9.3033H13.1718C13.3048 9.3033 13.4263 9.22784 13.4854 9.1087C13.5064 9.06614 14.0001 8.0489 14.0001 6.23072C14 4.572 13.4814 3.49358 13.4593 3.44864ZM5.98766 1.05156H6.54556V1.94798H5.98766V1.05156ZM12.9364 8.60288L12.2437 8.60162V7.93956C12.2437 7.8466 12.2067 7.75742 12.1411 7.69176C12.0754 7.62624 11.9865 7.58956 11.8937 7.58956C11.8936 7.58956 11.8933 7.58956 11.8931 7.58956L10.6952 7.59166C10.502 7.59194 10.3457 7.7486 10.3457 7.94166V8.94924H5.59636L4.27462 7.62764C4.20896 7.56198 4.12006 7.52516 4.0271 7.52516H2.75926C2.50264 7.52516 2.2939 7.31642 2.2939 7.05994V3.90028C2.2939 3.65192 2.49592 3.4499 2.74428 3.4499H3.1885C3.31478 3.4499 3.43126 3.38186 3.49328 3.27196L3.84538 2.64798H8.897L9.37734 3.73718C9.43292 3.8636 9.5578 3.94536 9.69584 3.94606L10.3459 3.94914V4.69394C10.3459 4.88728 10.5025 5.04394 10.6959 5.04394H11.8938C12.0872 5.04394 12.2438 4.88728 12.2438 4.69394V3.9525H12.9122C13.0465 4.30754 13.3 5.12416 13.3 6.23086C13.3 7.43584 13.0634 8.25176 12.9364 8.60288Z" fill="#9F9F9F"/>
</svg>
