<svg width="10" height="10" viewBox="0 0 10 10" fill="none" xmlns="http://www.w3.org/2000/svg">
<path d="M8.57469 9.07549C8.70026 9.07622 8.82319 9.03954 8.92783 8.97012C9.03247 8.90071 9.11406 8.80171 9.16221 8.68574C9.21036 8.56977 9.22289 8.44209 9.19819 8.31898C9.17349 8.19586 9.11269 8.08289 9.02353 7.99447L5.67301 4.65027L9.02353 1.30607C9.1271 1.18514 9.18122 1.02957 9.17507 0.870469C9.16893 0.711366 9.10297 0.560442 8.99038 0.447855C8.8778 0.335268 8.72687 0.269312 8.56777 0.263167C8.40867 0.257021 8.2531 0.311139 8.13217 0.414706L4.33913 4.20775C4.22138 4.32619 4.15529 4.48642 4.15529 4.65343C4.15529 4.82044 4.22138 4.98067 4.33913 5.09911L8.13217 8.89215C8.24992 9.00895 8.40885 9.07479 8.57469 9.07549Z" fill="#CACACA"/>
<path d="M4.68257 9.07549C4.80814 9.07622 4.93107 9.03954 5.03571 8.97012C5.14035 8.90071 5.22194 8.80171 5.27009 8.68574C5.31824 8.56977 5.33077 8.44209 5.30607 8.31898C5.28137 8.19586 5.22057 8.08289 5.13141 7.99447L1.78089 4.65027L5.13141 1.30607C5.23498 1.18514 5.2891 1.02957 5.28295 0.870469C5.27681 0.711366 5.21085 0.560442 5.09826 0.447855C4.98568 0.335268 4.83475 0.269312 4.67565 0.263167C4.51655 0.257021 4.36098 0.311139 4.24005 0.414706L0.447006 4.20775C0.329263 4.32619 0.263174 4.48642 0.263174 4.65343C0.263174 4.82044 0.329263 4.98067 0.447006 5.09911L4.24005 8.89215C4.3578 9.00895 4.51673 9.07479 4.68257 9.07549Z" fill="#CACACA"/>
</svg>
