<svg width="6" height="10" viewBox="0 0 6 10" fill="none" xmlns="http://www.w3.org/2000/svg">
<path d="M0.69808 9.21005C0.570598 9.2108 0.445782 9.17356 0.339548 9.10308C0.233313 9.03261 0.150471 8.9321 0.101585 8.81436C0.0526993 8.69662 0.0399837 8.56699 0.0650597 8.44199C0.0901356 8.317 0.151867 8.2023 0.242383 8.11253L3.64406 4.71727L0.242383 1.322C0.137235 1.19922 0.0822911 1.04128 0.0885304 0.87975C0.0947697 0.718217 0.161733 0.564988 0.276039 0.450682C0.390344 0.336376 0.543573 0.269413 0.705106 0.263174C0.866638 0.256935 1.02458 0.311879 1.14736 0.417027L4.99832 4.26799C5.11786 4.38824 5.18496 4.55091 5.18496 4.72048C5.18496 4.89004 5.11786 5.05271 4.99832 5.17296L1.14736 9.02392C1.02781 9.1425 0.866457 9.20934 0.69808 9.21005Z" fill="#CACACA"/>
</svg>
