<svg width="12" height="12" viewBox="0 0 12 12" fill="none" xmlns="http://www.w3.org/2000/svg">
<g clip-path="url(#clip0_258_5233)">
<path d="M11.8864 11.3471L8.78823 8.29845C9.59954 7.41698 10.098 6.25121 10.098 4.96841C10.0977 2.22426 7.83738 0 5.04897 0C2.26057 0 0.000289917 2.22426 0.000289917 4.96841C0.000289917 7.71256 2.26057 9.93682 5.04897 9.93682C6.25376 9.93682 7.35876 9.5201 8.22672 8.82731L11.3369 11.888C11.4885 12.0373 11.7345 12.0373 11.8861 11.888C12.038 11.7387 12.038 11.4964 11.8864 11.3471ZM5.04897 9.1724C2.68968 9.1724 0.777101 7.29021 0.777101 4.96841C0.777101 2.6466 2.68968 0.764419 5.04897 0.764419C7.40829 0.764419 9.32084 2.6466 9.32084 4.96841C9.32084 7.29021 7.40829 9.1724 5.04897 9.1724Z" fill="#0387D9"/>
</g>
<defs>
<clipPath id="clip0_258_5233">
<rect width="12" height="12" fill="white"/>
</clipPath>
</defs>
</svg>
