<svg width="14" height="14" viewBox="0 0 14 14" fill="none" xmlns="http://www.w3.org/2000/svg">
<g clip-path="url(#clip0_346_3543)">
<path d="M6.03666 10.3015L4.74969 11.5885C4.10519 12.233 3.05652 12.2332 2.4117 11.5885C1.76731 10.944 1.76752 9.89531 2.41202 9.25082L4.9961 6.66673C5.59328 6.06955 6.53771 6.02544 7.18573 6.53503C7.237 6.5753 7.28645 6.6192 7.33377 6.66652C7.62077 6.95341 8.06575 6.95811 8.34677 6.67699L9.15661 5.86714C9.02353 5.66516 8.86972 5.47675 8.69658 5.30361C8.45251 5.05965 8.18185 4.8581 7.89346 4.69948C6.76511 4.07709 5.36962 4.10818 4.26765 4.79262C4.03875 4.93479 3.82225 5.10515 3.62358 5.30393L1.04911 7.8784C-0.349585 9.27709 -0.349585 11.5528 1.04889 12.9514C2.44769 14.3501 4.72331 14.3501 6.12211 12.9514L8.43809 10.6354C7.6291 10.7424 6.7964 10.6314 6.03666 10.3015Z" fill="#0387D9"/>
<path d="M12.951 1.04891C11.5524 -0.349673 9.27678 -0.349673 7.87798 1.04913L5.56221 3.3649C6.3712 3.25777 7.2039 3.36885 7.96364 3.69879L9.25072 2.41172C9.89522 1.76722 10.9437 1.76722 11.5882 2.41172C12.2329 3.05643 12.2329 4.10489 11.5884 4.74939L9.00399 7.33379C8.41343 7.92435 7.47616 7.96515 6.82888 7.45801C6.7759 7.41689 6.72528 7.37192 6.67668 7.32332C6.39448 7.04113 5.93551 7.04134 5.65332 7.32354L4.84348 8.13338C4.97667 8.33493 5.13069 8.52356 5.30351 8.69638C5.54928 8.94215 5.82229 9.14467 6.11271 9.30414C7.24726 9.92695 8.6498 9.89053 9.75252 9.1953C9.97405 9.05569 10.1837 8.88939 10.3764 8.6966L12.951 6.12212C14.3497 4.72333 14.3497 2.44771 12.951 1.04891Z" fill="#1766A0"/>
</g>
<defs>
<clipPath id="clip0_346_3543">
<rect width="14" height="14" fill="white"/>
</clipPath>
</defs>
</svg>
