<svg width="20" height="20" viewBox="0 0 20 20" fill="none" xmlns="http://www.w3.org/2000/svg">
<path d="M18.25 5.17288C18.038 5.0697 17.801 5.02909 17.5668 5.0558C17.3326 5.08252 17.1108 5.17545 16.9275 5.32371L14.7917 7.03204V6.66621C14.8406 6.24399 14.7934 5.81618 14.6537 5.41476C14.514 5.01335 14.2852 4.64873 13.9847 4.34818C13.6841 4.04763 13.3195 3.81892 12.9181 3.67918C12.5167 3.53944 12.0889 3.49227 11.6667 3.54121H4.16667C3.74445 3.49227 3.31663 3.53944 2.91522 3.67918C2.5138 3.81892 2.14918 4.04763 1.84863 4.34818C1.54808 4.64873 1.31938 5.01335 1.17964 5.41476C1.0399 5.81618 0.99273 6.24399 1.04167 6.66621V13.3329C0.99273 13.7551 1.0399 14.1829 1.17964 14.5843C1.31938 14.9857 1.54808 15.3504 1.84863 15.6509C2.14918 15.9515 2.5138 16.1802 2.91522 16.3199C3.31663 16.4596 3.74445 16.5068 4.16667 16.4579H11.6667C12.0889 16.5068 12.5167 16.4596 12.9181 16.3199C13.3195 16.1802 13.6841 15.9515 13.9847 15.6509C14.2852 15.3504 14.514 14.9857 14.6537 14.5843C14.7934 14.1829 14.8406 13.7551 14.7917 13.3329V12.967L16.9275 14.6754C17.1479 14.8534 17.4226 14.9504 17.7058 14.9504C17.8942 14.9501 18.0801 14.9077 18.25 14.8262C18.4629 14.7248 18.6425 14.565 18.768 14.3654C18.8934 14.1657 18.9594 13.9345 18.9583 13.6987V6.30038C18.9594 6.0646 18.8934 5.83338 18.768 5.63373C18.6425 5.43408 18.4629 5.27424 18.25 5.17288ZM13.5417 13.3329C13.5417 14.647 12.9808 15.2079 11.6667 15.2079H4.16667C2.8525 15.2079 2.29167 14.647 2.29167 13.3329V6.66621C2.29167 5.35204 2.8525 4.79121 4.16667 4.79121H11.6667C12.9808 4.79121 13.5417 5.35204 13.5417 6.66621V13.3329ZM17.7083 13.6995L14.7917 11.3662V8.63288L17.7083 6.29954V13.6995Z" fill="#0387D9"/>
</svg>
